<svg width="567" height="367" viewBox="0 0 567 367" fill="none" xmlns="http://www.w3.org/2000/svg">
<path d="M75.3863 366.976H285.085V25.2021C213.11 174.96 81.0964 361.699 81.0964 361.699L75.3863 366.976Z" fill="#542547"/>
<path d="M488.822 361.699C488.822 361.699 356.808 174.958 284.833 25.2021V366.979H494.532L488.822 361.699Z" fill="#542547"/>
<path d="M242.115 366.976H328.452L284.823 137.802L242.115 366.976Z" fill="#E27933"/>
<path d="M175.69 297.07C175.69 297.07 201.68 347.695 242.116 366.977C242.116 366.977 282.192 241.348 285.087 136.521C285.087 136.521 248.285 264.322 175.69 297.07Z" fill="#F3DED0"/>
<path d="M394.877 297.07C394.877 297.07 368.888 347.695 328.452 366.977C328.452 366.977 288.376 241.348 285.481 136.521C285.481 136.521 322.282 264.322 394.877 297.07Z" fill="#F3DED0"/>
<path d="M34.1646 340.136H38.4045V366.979H34.1646V340.136Z" fill="#755037"/>
<path d="M284.142 6.10352e-05H288.382V26.8427H284.142V6.10352e-05Z" fill="#755037"/>
<path d="M0.409851 357.731C1.0441 357.441 237.271 277.126 286.263 4.95947" stroke="#755037" stroke-width="0.779375" stroke-miterlimit="10"/>
<path d="M527.925 340.136H532.163V366.979H527.925V340.136Z" fill="#755037"/>
<path d="M565.918 357.731C565.282 357.441 329.057 277.126 280.065 4.95947" stroke="#755037" stroke-width="0.779375" stroke-miterlimit="10"/>
</svg>
